<svg xmlns="http://www.w3.org/2000/svg" viewBox="0 0 40 40" enable-background="new 0 0 40 40"><style type="text/css">.st0{fill:#FAB613;}</style><path class="st0" d="M20 0C9 0 0 9 0 20s9 20 20 20 20-9 20-20S31 0 20 0zm1.9 31.5h-4v-3.8h4v3.8zm4.7-15.1c-.2.5-.4 1-.6 1.3s-.5.7-.9 1c-.3.3-.6.6-1 .9-.4.3-.7.6-1.1.9-.3.3-.6.6-.8 1-.2.4-.4.8-.6 1.3s-.2 1.1-.2 1.8h-3.2c0-.9 0-1.6.1-2.2.1-.6.2-1.1.4-1.6s.4-.9.7-1.2c.3-.3.6-.7 1-1 .3-.3.6-.5.9-.8.3-.2.5-.5.8-.8.2-.3.4-.6.5-1s.2-.8.2-1.3c0-.6-.1-1.1-.3-1.5-.2-.4-.5-.8-.8-1-.3-.3-.6-.4-1-.6s-.6-.2-.9-.2c-1.2 0-2.2.4-2.7 1.2-.6.8-.9 1.9-.9 3.3h-3.4c0-1.1.2-2.1.5-3s.8-1.7 1.4-2.3 1.4-1.1 2.3-1.5 1.9-.5 3-.5c.9 0 1.8.1 2.6.4.8.3 1.5.7 2.1 1.2.6.5 1.1 1.1 1.4 1.9.3.8.5 1.6.5 2.6.3.6.2 1.2 0 1.7z"/></svg>