<svg width="40" height="37" viewBox="0 0 40 37" xmlns="http://www.w3.org/2000/svg"><path d="M36.667 0H20c-1.838 0-3.333 1.493-3.333 3.333v5H20v-5h16.667V15h-5c-.36 0-.712.117-1 .333l-4 3v-1.666c0-.92-.747-1.667-1.667-1.667h-3.333v3.333h1.666v3.334c0 .63.357 1.21.922 1.49.235.118.492.176.745.176.353 0 .705-.113 1-.333l6.222-4.667h4.445C38.505 18.333 40 16.838 40 15V3.333C40 1.493 38.505 0 36.667 0zM13.333 23.333c3.677 0 6.667-2.99 6.667-6.666C20 12.99 17.01 10 13.333 10c-3.676 0-6.666 2.99-6.666 6.667 0 3.676 2.99 6.666 6.666 6.666zm0 1.667C5.483 25 0 29.112 0 35v1.667h26.667V35c0-5.888-5.484-10-13.334-10z" fill="#DF4537"/></svg>