<?xml version="1.0" encoding="UTF-8" standalone="no"?>
<svg width="40px" height="38px" viewBox="0 0 40 38" version="1.1" xmlns="http://www.w3.org/2000/svg" xmlns:xlink="http://www.w3.org/1999/xlink" xmlns:sketch="http://www.bohemiancoding.com/sketch/ns">
    <!-- Generator: Sketch 3.5.1 (25234) - http://www.bohemiancoding.com/sketch -->
    <title>Page 1</title>
    <desc>Created with Sketch.</desc>
    <defs></defs>
    <g id="Page-1" stroke="none" stroke-width="1" fill="none" fill-rule="evenodd" sketch:type="MSPage">
        <g id="Home" sketch:type="MSArtboardGroup" transform="translate(-585.000000, -281.000000)" fill="#00A763">
            <g id="Group-Copy-3" sketch:type="MSLayerGroup" transform="translate(500.000000, 240.000000)">
                <g id="Group-8" transform="translate(24.000000, 41.000000)" sketch:type="MSShapeGroup">
                    <g id="Group-7" transform="translate(61.000000, 0.000000)">
                        <path d="M16,4 L24,4 L24,6 L16,6 L16,4 Z M36,6 L36,4 L32,4 L32,6 L28,6 L28,2 C28,0.896 27.104,0 26,0 L14,0 C12.896,0 12,0.896 12,2 L12,6 L8,6 L8,4 L4,4 L4,6 C1.792,6 0,7.794 0,10 L0,34 C0,36.208 1.792,38 4,38 L36,38 C38.206,38 40,36.208 40,34 L40,10 C40,7.794 38.206,6 36,6 Z M19.2835821,32.1641791 L21.2313433,32.1641791 L21.2313433,29.9477612 C24.0746269,29.7014925 26,28.0671642 26,25.6268657 L26,25.5820896 C26,23.1865672 24.5447761,21.8208955 21.141791,20.9701493 L21.141791,16.7164179 C22.1940299,16.9402985 23.2014925,17.4104478 24.1865672,18.1492537 L25.4402985,16.0447761 C24.2089552,15.1268657 22.8656716,14.5447761 21.2313433,14.3432836 L21.2313433,13 L19.2835821,13 L19.2835821,14.2985075 C16.4850746,14.5223881 14.5820896,16.1567164 14.5820896,18.5746269 L14.5820896,18.619403 C14.5820896,21.1268657 16.1044776,22.358209 19.3731343,23.2089552 L19.3731343,27.5970149 C17.9179104,27.3731343 16.7089552,26.7014925 15.4328358,25.6716418 L14,27.7089552 C15.5223881,28.9179104 17.3358209,29.7014925 19.2835821,29.9253731 L19.2835821,32.1641791 Z M19.3731343,20.5 C17.6492537,19.9850746 17.2238806,19.380597 17.2238806,18.4626866 L17.2238806,18.4179104 C17.2238806,17.4328358 17.9626866,16.6716418 19.3731343,16.5597015 L19.3731343,20.5 Z M21.141791,27.6865672 L21.141791,23.6343284 C22.8880597,24.1492537 23.358209,24.7537313 23.358209,25.738806 L23.358209,25.7835821 C23.358209,26.858209 22.5522388,27.5746269 21.141791,27.6865672 Z" id="Page-1"></path>
                    </g>
                </g>
            </g>
        </g>
    </g>
</svg>