<svg xmlns="http://www.w3.org/2000/svg" viewBox="0 0 40 40" enable-background="new 0 0 40 40"><style type="text/css">.st0{fill:#1AAAD7;}</style><path class="st0" d="M13.2 32.3c-1.4.8-3.2.9-3.7.9-.2 0-.2-.1-.2-.2-.1-.6-.2-2.4.4-3.8.1-.1-.1-.2-.2-.2-3.7 2-4.3 5.4-4.5 8.6 0 .3.2.4.3.4 3.2-.6 6.5-1.5 8-5.5 0-.1 0-.2-.1-.2zM15.5 14.7c-.2.1-.2.2-.4.2-7.4.6-11.9 5.1-14 7.3-.2.2 0 .5.3.4 4.2-1.4 8.3-.7 9.7-.4.3.1.4.4.4.6l-.9 3.6c-.1.2.1.5.3.6.6.2 1.6.7 2.6 1.5 1 .9 1.6 1.9 1.8 2.5.2.2.4.3.6.2l3.4-1.4c.3-.1.5 0 .7.3.4 1.3 1.6 5.4.7 9.7-.1.2.2.4.4.2 2-2.3 5.9-7.3 5.6-14.7 0-.2.1-.2.2-.3 10.3-9.1 11.8-19.4 12-25-5.5.8-15.7 3.5-23.4 14.7zm12.9 2.8c-1.4 1.5-3.8 1.6-5.4.3-1.5-1.4-1.7-3.8-.3-5.4 1.4-1.6 3.8-1.7 5.4-.3 1.5 1.4 1.6 3.8.3 5.4z"/></svg>